# Alias Wavefront OBJ File Exported from SketchUp
# with OBJexporter (c) 2013 TIG
# Units = meters

mtllib box.mtl

g box-SKP-0128_White
usemtl 0128_White
v 0.06 -0.005 -0.06
v -0.06 -0.005 0.06
v -0.06 -0.005 -0.06
v 0.06 -0.005 0.06
v -0.06 0.005 0.06
v -0.050074920121 0.005 0.050074920121
v -0.06 0.005 -0.06
v 0.06 0.005 0.06
v 0.050074920121 0.005 0.050074920121
v 0.050074920121 0.005 -0.050074920121
v -0.050074920121 0.005 -0.050074920121
v 0.06 0.005 -0.06
vt -2.36220472441 2.36220472441
vt 2.36220472441 -2.36220472441
vt 2.36220472441 2.36220472441
vt -2.36220472441 -2.36220472441
vt -1.97145354807 -1.97145354807
vt 1.97145354807 -1.97145354807
vt 1.97145354807 1.97145354807
vt -1.97145354807 1.97145354807
vt 2.36220472441 0.196850393701
vt -2.36220472441 -0.196850393701
vt 2.36220472441 -0.196850393701
vt -2.36220472441 0.196850393701
vn 0 -1 0
vn 0 1 0
vn 0 0 -1
vn 1 0 0
vn 0 0 1
vn -1 0 0
f 1/1/1 2/2/1 3/3/1
f 2/2/1 1/1/1 4/4/1
f 5/4/2 6/5/2 7/1/2
f 6/5/2 5/4/2 8/2/2
f 6/5/2 8/2/2 9/6/2
f 9/6/2 8/2/2 10/7/2
f 7/1/2 11/8/2 12/3/2
f 11/8/2 7/1/2 6/5/2
f 12/3/2 11/8/2 10/7/2
f 12/3/2 10/7/2 8/2/2
f 7/9/3 1/10/3 3/11/3
f 1/10/3 7/9/3 12/12/3
f 1/11/4 8/12/4 4/10/4
f 8/12/4 1/11/4 12/9/4
f 8/9/5 2/10/5 4/11/5
f 2/10/5 8/9/5 5/12/5
f 7/12/6 2/11/6 5/9/6
f 2/11/6 7/12/6 3/10/6

g box-IMG-1924-Image1
usemtl Image1
vt 1 0
vt 0 1
vt 0 0
vt 1 1
f 9/13/2 11/14/2 6/15/2
f 11/14/2 9/13/2 10/16/2

#EOF
