# Alias Wavefront OBJ File Exported from SketchUp
# with OBJexporter (c) 2013 TIG
# Units = meters

mtllib sag.mtl

g box2-GRP-1847-0128_White
usemtl 0128_White
v -0.005 -0.06 -0.06
v -0.005 0.06 0.06
v -0.005 0.06 -0.06
v -0.005 -0.06 0.06
v 0.005 0.06 0.06
v 0.005 0.050074920121 0.050074920121
v 0.005 0.06 -0.06
v 0.005 -0.06 0.06
v 0.005 -0.050074920121 0.050074920121
v 0.005 -0.050074920121 -0.050074920121
v 0.005 0.050074920121 -0.050074920121
v 0.005 -0.06 -0.06
vt -4.72440944882 4.72440944882
vt 0 0
vt 0 4.72440944882
vt -4.72440944882 0
vt 0.39075117634 0.39075117634
vt 4.72440944882 0
vt 4.33365827248 0.39075117634
vt 4.33365827248 4.33365827248
vt 0.39075117634 4.33365827248
vt 4.72440944882 4.72440944882
vt 0 0.393700787402
vt -4.72440944882 0.393700787402
vt 4.72440944882 0.393700787402
vn -1 3.60822483003e-016 0
vn 1 -3.60822483003e-016 0
vn 0 0 -1
vn -3.60822483003e-016 -1 0
vn 0 0 1
vn 3.60822483003e-016 1 0
f 1/1/1 2/2/1 3/3/1
f 2/2/1 1/1/1 4/4/1
f 5/2/2 6/5/2 7/3/2
f 6/5/2 5/2/2 8/6/2
f 6/5/2 8/6/2 9/7/2
f 9/7/2 8/6/2 10/8/2
f 7/3/2 11/9/2 12/10/2
f 11/9/2 7/3/2 6/5/2
f 12/10/2 11/9/2 10/8/2
f 12/10/2 10/8/2 8/6/2
f 7/11/3 1/4/3 3/2/3
f 1/4/3 7/11/3 12/12/3
f 1/6/4 8/11/4 4/2/4
f 8/11/4 1/6/4 12/13/4
f 8/13/5 2/2/5 4/6/5
f 2/2/5 8/13/5 5/11/5
f 7/12/6 2/2/6 5/11/6
f 2/2/6 7/12/6 3/4/6

g box2-IMG-1829-Image1
usemtl Image1
vt 1 0
vt 0 1
vt 1 1
f 9/14/2 11/15/2 6/2/2
f 11/15/2 9/14/2 10/16/2

#EOF
