# Alias Wavefront OBJ File Exported from SketchUp
# with OBJexporter (c) 2013 TIG
# Units = meters

mtllib simple.mtl

g 1_oct_final-GRP-2184-Color_000
usemtl Color_000
v -0.005 0.045 -0.04
v -0.005 -0.035 0.04
v -0.005 0.045 0.04
v -0.005 -0.035 -0.04
v 0.005 -0.035 0.04
v 0.005 0.045 0.04
v 0.005 0.045 -0.04
v 0.005 -0.035 -0.04
v 0.005 0.035 0.03
v 0.005 -0.025 0.03
v 0.005 -0.025 -0.03
v 0.005 0.035 -0.03
vt -2.22044604925e-016 3.14960629921
vt -3.14960629921 2.22044604925e-016
vt 0 0
vt -3.14960629921 3.14960629921
vt 3.14960629921 0.393700787402
vt 3.14960629921 0
vt 0 0.393700787402
vt -3.14960629921 0.393700787402
vt -3.14960629921 0
vt -2.22044604925e-016 0.393700787402
vt -2.22044604925e-016 0
vt 0.393700787402 0.393700787402
vt 2.22044604925e-016 3.14960629921
vt 3.14960629921 2.22044604925e-016
vt 2.75590551181 0.393700787402
vt 2.75590551181 2.75590551181
vt 0.393700787402 2.75590551181
vt 3.14960629921 3.14960629921
vt 2.22044604925e-016 0.393700787402
vt 2.22044604925e-016 0
vn -1 4.30211422042e-016 0
vn -3.03295447642e-032 -7.04991620637e-017 1
vn 4.30211422042e-016 1 -7.04991620637e-017
vn 0 0 -1
vn 1 -4.30211422042e-016 0
vn -4.30211422042e-016 -1 0
f 1/1/1 2/2/1 3/3/1
f 2/2/1 1/1/1 4/4/1
f 5/5/2 3/3/2 2/6/2
f 3/3/2 5/5/2 6/7/2
f 7/8/3 3/3/3 6/7/3
f 3/3/3 7/8/3 1/9/3
f 7/10/4 4/9/4 1/11/4
f 4/9/4 7/10/4 8/8/4
f 6/3/5 9/12/5 7/13/5
f 9/12/5 6/3/5 5/14/5
f 9/12/5 5/14/5 10/15/5
f 10/15/5 5/14/5 11/16/5
f 7/13/5 12/17/5 8/18/5
f 12/17/5 7/13/5 9/12/5
f 8/18/5 12/17/5 11/16/5
f 8/18/5 11/16/5 5/14/5
f 4/6/6 5/19/6 2/20/6
f 5/19/6 4/6/6 8/5/6

g 1_oct_final-IMG-1989-Image1
usemtl Image1
vt 1 0
vt 0 1
vt 1 1
f 10/21/5 12/22/5 9/3/5
f 12/22/5 10/21/5 11/23/5

#EOF
